# xmcd
# 
# Track frame offsets:
#     150
#     20962
#     41652
#     60598
# 
# Disc length: 1085
# 
# Revision: 3
# Processed by: cddbd v1.5.2PL0 Copyright (c) Steve Scherf et al.
# Submitted via: BonkEnc v1.0.6
# 
DISCID=32043b04
DTITLE=nirgilis - sakura
DYEAR=2006
DGENRE=JPop
TTITLE0=sakura
TTITLE1=sakura(cherrey blossom)
TTITLE2=Re;commongirl
TTITLE3=sakura(original instrumental)
EXTD=YEAR: 2001
EXTT0=
EXTT1=
EXTT2=
EXTT3=
PLAYORDER=
